<svg xmlns="http://www.w3.org/2000/svg" xmlns:xlink="http://www.w3.org/1999/xlink" width="200" zoomAndPan="magnify" viewBox="0 0 150 37.5" height="50" preserveAspectRatio="xMidYMid meet" version="1.0"><defs><clipPath id="b10941e442"><path d="M 24.171875 13.21875 L 125.828125 13.21875 L 125.828125 23.9375 L 24.171875 23.9375 Z M 24.171875 13.21875 " clip-rule="nonzero"/></clipPath><clipPath id="b0282c2f8c"><path d="M 79.992188 0 L 119.878906 0 L 119.878906 12.554688 L 79.992188 12.554688 Z M 79.992188 0 " clip-rule="nonzero"/></clipPath><clipPath id="5a41e609fc"><path d="M 92 0 L 108 0 L 108 12.554688 L 92 12.554688 Z M 92 0 " clip-rule="nonzero"/></clipPath><clipPath id="9fcd3f1e8f"><path d="M 79.992188 24.660156 L 119.878906 24.660156 L 119.878906 37 L 79.992188 37 Z M 79.992188 24.660156 " clip-rule="nonzero"/></clipPath><clipPath id="545f60a809"><path d="M 92 24.660156 L 108 24.660156 L 108 37 L 92 37 Z M 92 24.660156 " clip-rule="nonzero"/></clipPath><clipPath id="122010b853"><path d="M 24.171875 13.21875 L 74.023438 13.21875 L 74.023438 23.734375 L 24.171875 23.734375 Z M 24.171875 13.21875 " clip-rule="nonzero"/></clipPath></defs><g clip-path="url(#b10941e442)"><path fill="#013b5d" d="M 30.714844 23.9375 L 25.761719 14.796875 C 25.539062 14.382812 25.316406 14.082031 25.09375 13.933594 C 24.875 13.746094 24.578125 13.632812 24.171875 13.59375 L 24.171875 13.445312 C 24.503906 13.445312 24.945312 13.480469 25.464844 13.480469 C 25.980469 13.480469 26.609375 13.480469 27.277344 13.480469 C 27.867188 13.480469 28.460938 13.480469 29.011719 13.480469 C 29.566406 13.480469 29.976562 13.445312 30.234375 13.445312 L 30.234375 13.59375 C 29.789062 13.59375 29.492188 13.667969 29.234375 13.746094 C 29.011719 13.820312 28.902344 13.96875 28.867188 14.160156 C 28.828125 14.347656 28.902344 14.574219 29.050781 14.875 L 32.304688 20.855469 L 32.007812 21.304688 L 33.96875 17.542969 C 34.335938 16.828125 34.523438 16.191406 34.59375 15.589844 C 34.632812 14.984375 34.558594 14.535156 34.300781 14.160156 C 34.042969 13.820312 33.671875 13.632812 33.117188 13.59375 L 33.117188 13.445312 C 33.523438 13.445312 33.820312 13.445312 34.113281 13.480469 C 34.375 13.480469 34.59375 13.480469 34.816406 13.480469 C 35.003906 13.480469 35.222656 13.480469 35.410156 13.480469 C 35.667969 13.480469 35.925781 13.480469 36.183594 13.480469 C 36.445312 13.480469 36.738281 13.445312 37.109375 13.445312 L 37.109375 13.59375 C 36.8125 13.707031 36.554688 13.859375 36.296875 14.046875 C 36.074219 14.234375 35.816406 14.535156 35.59375 14.875 C 35.371094 15.210938 35.074219 15.699219 34.78125 16.265625 L 30.863281 23.902344 Z M 37.664062 23.75 L 37.664062 23.601562 C 38.105469 23.5625 38.402344 23.523438 38.589844 23.488281 C 38.773438 23.410156 38.921875 23.300781 38.957031 23.148438 C 39.03125 22.960938 39.03125 22.734375 39.03125 22.359375 L 39.03125 14.875 C 39.03125 14.535156 38.996094 14.273438 38.921875 14.082031 C 38.847656 13.894531 38.734375 13.78125 38.515625 13.746094 C 38.328125 13.667969 37.996094 13.632812 37.589844 13.632812 L 37.589844 13.480469 C 37.886719 13.480469 38.292969 13.519531 38.808594 13.519531 C 39.289062 13.519531 39.882812 13.519531 40.511719 13.519531 C 41.101562 13.519531 41.65625 13.519531 42.136719 13.519531 C 42.617188 13.519531 42.988281 13.480469 43.28125 13.480469 L 43.28125 13.632812 C 42.875 13.667969 42.582031 13.707031 42.359375 13.746094 C 42.171875 13.820312 42.027344 13.933594 41.988281 14.082031 C 41.914062 14.273438 41.914062 14.496094 41.914062 14.875 L 41.914062 22.359375 C 41.914062 22.699219 41.953125 22.960938 41.988281 23.148438 C 42.0625 23.335938 42.171875 23.449219 42.359375 23.488281 C 42.542969 23.5625 42.839844 23.601562 43.28125 23.601562 L 43.28125 23.75 C 42.988281 23.75 42.617188 23.714844 42.136719 23.714844 C 41.65625 23.714844 41.101562 23.714844 40.511719 23.714844 C 39.84375 23.714844 39.289062 23.714844 38.808594 23.714844 C 38.328125 23.714844 37.921875 23.75 37.589844 23.75 Z M 48.976562 23.976562 C 48.347656 23.976562 47.828125 23.9375 47.421875 23.824219 C 47.015625 23.714844 46.648438 23.636719 46.386719 23.523438 C 46.128906 23.410156 45.871094 23.375 45.613281 23.375 C 45.425781 23.375 45.277344 23.410156 45.203125 23.488281 C 45.09375 23.5625 45.019531 23.714844 44.984375 23.9375 L 44.796875 23.9375 C 44.835938 23.675781 44.835938 23.375 44.835938 23.035156 C 44.835938 22.699219 44.871094 22.246094 44.871094 21.71875 C 44.871094 21.15625 44.871094 20.441406 44.871094 19.5 L 45.019531 19.5 C 45.242188 20.929688 45.648438 21.984375 46.277344 22.699219 C 46.90625 23.410156 47.753906 23.75 48.828125 23.75 C 49.457031 23.75 49.9375 23.601562 50.304688 23.261719 C 50.675781 22.921875 50.859375 22.507812 50.859375 21.984375 C 50.859375 21.605469 50.785156 21.269531 50.601562 21.003906 C 50.417969 20.742188 50.160156 20.515625 49.789062 20.289062 C 49.417969 20.0625 48.9375 19.875 48.347656 19.726562 C 47.496094 19.5 46.792969 19.199219 46.3125 18.859375 C 45.796875 18.523438 45.464844 18.109375 45.242188 17.695312 C 45.019531 17.242188 44.910156 16.753906 44.910156 16.226562 C 44.910156 15.625 45.09375 15.097656 45.425781 14.683594 C 45.757812 14.234375 46.238281 13.894531 46.832031 13.632812 C 47.421875 13.367188 48.125 13.257812 48.902344 13.257812 C 49.457031 13.257812 49.9375 13.292969 50.34375 13.40625 C 50.714844 13.519531 51.046875 13.632812 51.339844 13.746094 C 51.601562 13.859375 51.859375 13.894531 52.117188 13.894531 C 52.300781 13.894531 52.449219 13.859375 52.5625 13.746094 C 52.636719 13.632812 52.710938 13.480469 52.78125 13.257812 L 52.96875 13.257812 C 52.929688 13.480469 52.929688 13.707031 52.929688 14.007812 C 52.929688 14.273438 52.894531 14.648438 52.894531 15.136719 C 52.894531 15.625 52.894531 16.265625 52.894531 17.128906 L 52.710938 17.128906 C 52.523438 16 52.082031 15.097656 51.414062 14.460938 C 50.75 13.820312 49.9375 13.480469 49.011719 13.480469 C 48.496094 13.480469 48.050781 13.632812 47.753906 13.894531 C 47.421875 14.160156 47.273438 14.535156 47.273438 15.0625 C 47.273438 15.398438 47.386719 15.699219 47.570312 15.964844 C 47.753906 16.226562 48.089844 16.453125 48.496094 16.640625 C 48.902344 16.828125 49.417969 17.054688 50.085938 17.207031 C 51.378906 17.542969 52.300781 18.03125 52.820312 18.636719 C 53.335938 19.238281 53.597656 19.953125 53.597656 20.816406 C 53.597656 21.792969 53.191406 22.585938 52.375 23.148438 C 51.5625 23.714844 50.492188 24.015625 49.125 24.015625 Z M 54.707031 23.75 L 54.707031 23.601562 C 55.148438 23.5625 55.445312 23.523438 55.628906 23.488281 C 55.8125 23.410156 55.960938 23.300781 56 23.148438 C 56.074219 22.960938 56.074219 22.734375 56.074219 22.359375 L 56.074219 14.875 C 56.074219 14.535156 56.035156 14.273438 55.960938 14.082031 C 55.886719 13.894531 55.777344 13.78125 55.554688 13.746094 C 55.371094 13.667969 55.039062 13.632812 54.632812 13.632812 L 54.632812 13.480469 C 54.925781 13.480469 55.332031 13.519531 55.851562 13.519531 C 56.332031 13.519531 56.921875 13.519531 57.550781 13.519531 C 58.144531 13.519531 58.699219 13.519531 59.179688 13.519531 C 59.660156 13.519531 60.027344 13.480469 60.324219 13.480469 L 60.324219 13.632812 C 59.917969 13.667969 59.621094 13.707031 59.398438 13.746094 C 59.214844 13.820312 59.066406 13.933594 59.03125 14.082031 C 58.957031 14.273438 58.957031 14.496094 58.957031 14.875 L 58.957031 22.359375 C 58.957031 22.699219 58.992188 22.960938 59.03125 23.148438 C 59.105469 23.335938 59.214844 23.449219 59.398438 23.488281 C 59.585938 23.5625 59.878906 23.601562 60.324219 23.601562 L 60.324219 23.75 C 60.027344 23.75 59.660156 23.714844 59.179688 23.714844 C 58.699219 23.714844 58.144531 23.714844 57.550781 23.714844 C 56.886719 23.714844 56.332031 23.714844 55.851562 23.714844 C 55.371094 23.714844 54.964844 23.75 54.632812 23.75 Z M 67.753906 23.976562 C 66.496094 23.976562 65.425781 23.75 64.464844 23.300781 C 63.539062 22.847656 62.800781 22.207031 62.285156 21.417969 C 61.765625 20.628906 61.507812 19.6875 61.507812 18.636719 C 61.507812 17.582031 61.765625 16.640625 62.320312 15.851562 C 62.875 15.0625 63.613281 14.421875 64.539062 13.96875 C 65.5 13.519531 66.570312 13.292969 67.753906 13.292969 C 69.011719 13.292969 70.082031 13.519531 71.042969 13.96875 C 71.96875 14.421875 72.707031 15.0625 73.226562 15.851562 C 73.742188 16.640625 74.039062 17.582031 74.039062 18.636719 C 74.039062 19.6875 73.78125 20.628906 73.226562 21.417969 C 72.671875 22.207031 71.933594 22.847656 71.007812 23.300781 C 70.082031 23.75 68.972656 23.976562 67.753906 23.976562 Z M 67.792969 23.789062 C 68.382812 23.789062 68.902344 23.5625 69.382812 23.148438 C 69.863281 22.734375 70.269531 22.132812 70.5625 21.34375 C 70.859375 20.554688 71.007812 19.652344 71.007812 18.597656 C 71.007812 17.542969 70.859375 16.605469 70.527344 15.8125 C 70.195312 15.023438 69.789062 14.421875 69.308594 14.007812 C 68.789062 13.59375 68.273438 13.367188 67.71875 13.367188 C 67.125 13.367188 66.570312 13.59375 66.089844 14.007812 C 65.609375 14.421875 65.203125 15.023438 64.945312 15.8125 C 64.648438 16.605469 64.5 17.507812 64.5 18.558594 C 64.5 19.613281 64.648438 20.554688 64.980469 21.304688 C 65.316406 22.09375 65.722656 22.699219 66.203125 23.109375 C 66.71875 23.523438 67.238281 23.75 67.792969 23.75 Z M 85.277344 23.9375 L 76.699219 14.308594 L 76.664062 14.308594 L 76.664062 21.15625 C 76.664062 21.71875 76.699219 22.171875 76.738281 22.507812 C 76.773438 22.847656 76.921875 23.074219 77.179688 23.261719 C 77.441406 23.410156 77.808594 23.523438 78.363281 23.601562 L 78.363281 23.75 C 78.179688 23.714844 77.882812 23.714844 77.585938 23.714844 C 77.253906 23.714844 76.921875 23.714844 76.625 23.714844 C 76.257812 23.714844 76 23.714844 75.777344 23.714844 C 75.554688 23.714844 75.332031 23.714844 75.109375 23.75 L 75.109375 23.601562 C 75.554688 23.523438 75.851562 23.410156 76.070312 23.261719 C 76.257812 23.109375 76.40625 22.847656 76.441406 22.585938 C 76.480469 22.285156 76.515625 21.90625 76.515625 21.457031 L 76.515625 14.875 C 76.515625 14.535156 76.480469 14.308594 76.441406 14.121094 C 76.367188 13.933594 76.257812 13.820312 76.070312 13.746094 C 75.886719 13.667969 75.554688 13.632812 75.109375 13.59375 L 75.109375 13.445312 C 75.371094 13.445312 75.703125 13.480469 76.109375 13.480469 C 76.515625 13.480469 76.921875 13.480469 77.328125 13.480469 C 77.808594 13.480469 78.214844 13.480469 78.621094 13.480469 C 79.03125 13.480469 79.398438 13.445312 79.695312 13.445312 L 85.238281 19.652344 L 85.277344 19.652344 L 85.277344 16.039062 C 85.277344 15.476562 85.238281 15.023438 85.203125 14.683594 C 85.164062 14.347656 85.019531 14.121094 84.757812 13.933594 C 84.539062 13.78125 84.128906 13.667969 83.578125 13.59375 L 83.578125 13.445312 C 83.761719 13.445312 84.019531 13.480469 84.351562 13.480469 C 84.683594 13.480469 84.980469 13.480469 85.3125 13.480469 C 85.609375 13.480469 85.867188 13.480469 86.164062 13.480469 C 86.460938 13.480469 86.679688 13.445312 86.828125 13.445312 L 86.828125 13.59375 C 86.386719 13.667969 86.054688 13.746094 85.867188 13.894531 C 85.683594 14.046875 85.535156 14.273438 85.5 14.574219 C 85.460938 14.875 85.425781 15.25 85.425781 15.738281 L 85.425781 23.902344 Z M 87.789062 23.75 L 87.789062 23.601562 C 88.195312 23.5625 88.53125 23.523438 88.714844 23.488281 C 88.898438 23.410156 89.046875 23.300781 89.085938 23.148438 C 89.15625 22.960938 89.15625 22.734375 89.15625 22.359375 L 89.15625 14.875 C 89.15625 14.535156 89.121094 14.273438 89.046875 14.082031 C 88.972656 13.894531 88.863281 13.78125 88.675781 13.746094 C 88.492188 13.667969 88.195312 13.632812 87.753906 13.632812 L 87.753906 13.480469 C 88.34375 13.480469 89.121094 13.519531 90.082031 13.519531 C 91.042969 13.519531 92.152344 13.519531 93.484375 13.519531 C 93.964844 13.519531 94.40625 13.519531 94.8125 13.519531 C 95.222656 13.519531 95.628906 13.519531 95.996094 13.519531 C 96.367188 13.519531 96.664062 13.519531 96.957031 13.480469 C 96.957031 14.121094 96.957031 14.722656 96.996094 15.289062 C 97.03125 15.851562 97.105469 16.414062 97.179688 16.980469 L 97.03125 16.980469 C 96.773438 16.191406 96.476562 15.511719 96.144531 15.0625 C 95.8125 14.574219 95.441406 14.234375 95 14.007812 C 94.554688 13.78125 94.039062 13.667969 93.410156 13.667969 L 92.003906 13.667969 L 92.003906 22.660156 C 92.003906 22.921875 92.042969 23.109375 92.078125 23.222656 C 92.117188 23.375 92.226562 23.449219 92.410156 23.488281 C 92.558594 23.523438 92.78125 23.5625 93.078125 23.5625 L 93.152344 23.5625 C 93.851562 23.5625 94.445312 23.410156 95.035156 23.148438 C 95.589844 22.847656 96.109375 22.433594 96.550781 21.871094 C 96.996094 21.304688 97.363281 20.589844 97.699219 19.6875 L 97.882812 19.6875 C 97.808594 20.515625 97.734375 21.269531 97.699219 21.90625 C 97.660156 22.585938 97.660156 23.1875 97.699219 23.75 C 97.144531 23.714844 96.515625 23.714844 95.773438 23.714844 C 95.074219 23.714844 94.222656 23.714844 93.222656 23.714844 C 91.96875 23.714844 90.894531 23.714844 89.972656 23.714844 C 89.046875 23.714844 88.308594 23.714844 87.714844 23.75 Z M 91.597656 18.671875 L 91.597656 18.523438 L 95.183594 18.523438 L 95.183594 18.671875 Z M 95.515625 20.890625 C 95.441406 20.363281 95.292969 19.914062 95.148438 19.613281 C 94.960938 19.273438 94.703125 19.046875 94.40625 18.898438 C 94.074219 18.746094 93.707031 18.671875 93.222656 18.671875 L 93.222656 18.523438 C 93.851562 18.523438 94.371094 18.335938 94.738281 17.957031 C 95.109375 17.582031 95.367188 17.015625 95.480469 16.265625 L 95.664062 16.265625 C 95.628906 16.867188 95.589844 17.355469 95.589844 17.65625 C 95.589844 17.996094 95.589844 18.296875 95.589844 18.597656 C 95.589844 18.746094 95.589844 18.9375 95.589844 19.125 C 95.589844 19.3125 95.628906 19.539062 95.628906 19.800781 C 95.628906 20.0625 95.664062 20.441406 95.703125 20.929688 Z M 110.785156 23.9375 L 106.457031 14.796875 C 106.273438 14.382812 106.050781 14.082031 105.832031 13.933594 C 105.609375 13.746094 105.3125 13.632812 104.941406 13.59375 L 104.941406 13.445312 C 105.277344 13.445312 105.683594 13.480469 106.238281 13.480469 C 106.792969 13.480469 107.308594 13.480469 107.828125 13.480469 C 108.195312 13.480469 108.566406 13.480469 108.933594 13.480469 C 109.304688 13.480469 109.675781 13.480469 110.007812 13.480469 C 110.339844 13.480469 110.597656 13.480469 110.746094 13.445312 L 110.746094 13.59375 C 110.339844 13.59375 110.007812 13.667969 109.785156 13.746094 C 109.5625 13.820312 109.453125 13.96875 109.414062 14.160156 C 109.378906 14.347656 109.453125 14.574219 109.601562 14.875 L 112.261719 20.515625 L 111.929688 21.078125 L 113.445312 17.507812 C 113.777344 16.753906 113.925781 16.113281 114 15.511719 C 114.035156 14.949219 113.925781 14.460938 113.703125 14.121094 C 113.445312 13.78125 113.074219 13.59375 112.519531 13.558594 L 112.519531 13.40625 C 112.890625 13.40625 113.222656 13.40625 113.480469 13.445312 C 113.742188 13.445312 114 13.445312 114.183594 13.445312 C 114.40625 13.445312 114.589844 13.445312 114.777344 13.445312 C 114.996094 13.445312 115.257812 13.445312 115.515625 13.445312 C 115.773438 13.445312 116.070312 13.40625 116.441406 13.40625 L 116.441406 13.558594 C 116.179688 13.667969 115.886719 13.820312 115.625 14.007812 C 115.367188 14.195312 115.109375 14.460938 114.886719 14.835938 C 114.664062 15.175781 114.40625 15.664062 114.109375 16.265625 L 110.820312 23.902344 Z M 104.316406 23.9375 L 99.878906 14.796875 C 99.695312 14.382812 99.472656 14.082031 99.25 13.933594 C 99.027344 13.746094 98.695312 13.632812 98.324219 13.59375 L 98.324219 13.445312 C 98.660156 13.445312 99.101562 13.480469 99.65625 13.480469 C 100.210938 13.480469 100.765625 13.480469 101.285156 13.480469 C 101.652344 13.480469 102.023438 13.480469 102.390625 13.480469 C 102.761719 13.480469 103.132812 13.480469 103.464844 13.480469 C 103.796875 13.480469 104.054688 13.480469 104.242188 13.445312 L 104.242188 13.59375 C 103.832031 13.59375 103.5 13.667969 103.316406 13.746094 C 103.09375 13.820312 102.984375 13.96875 102.984375 14.160156 C 102.945312 14.347656 103.019531 14.574219 103.167969 14.875 L 106.015625 20.703125 L 105.71875 21.117188 L 107.828125 16.828125 L 107.898438 17.015625 L 104.5 23.976562 Z M 121.355469 23.976562 C 120.726562 23.976562 120.210938 23.9375 119.804688 23.824219 C 119.398438 23.714844 119.027344 23.636719 118.769531 23.523438 C 118.507812 23.410156 118.25 23.375 117.992188 23.375 C 117.808594 23.375 117.660156 23.410156 117.585938 23.488281 C 117.472656 23.5625 117.402344 23.714844 117.363281 23.9375 L 117.179688 23.9375 C 117.214844 23.675781 117.214844 23.375 117.214844 23.035156 C 117.214844 22.699219 117.253906 22.246094 117.253906 21.71875 C 117.253906 21.15625 117.253906 20.441406 117.253906 19.5 L 117.402344 19.5 C 117.621094 20.929688 118.027344 21.984375 118.65625 22.699219 C 119.285156 23.410156 120.136719 23.75 121.207031 23.75 C 121.835938 23.75 122.316406 23.601562 122.6875 23.261719 C 123.054688 22.921875 123.242188 22.507812 123.242188 21.984375 C 123.242188 21.605469 123.167969 21.269531 122.984375 21.003906 C 122.796875 20.742188 122.539062 20.515625 122.167969 20.289062 C 121.800781 20.0625 121.320312 19.875 120.726562 19.726562 C 119.878906 19.5 119.175781 19.199219 118.695312 18.859375 C 118.175781 18.523438 117.84375 18.109375 117.621094 17.695312 C 117.402344 17.242188 117.289062 16.753906 117.289062 16.226562 C 117.289062 15.625 117.472656 15.097656 117.808594 14.683594 C 118.140625 14.234375 118.621094 13.894531 119.210938 13.632812 C 119.804688 13.367188 120.503906 13.257812 121.28125 13.257812 C 121.835938 13.257812 122.316406 13.292969 122.722656 13.40625 C 123.09375 13.519531 123.425781 13.632812 123.722656 13.746094 C 123.980469 13.859375 124.238281 13.894531 124.5 13.894531 C 124.683594 13.894531 124.832031 13.859375 124.941406 13.746094 C 125.015625 13.632812 125.089844 13.480469 125.164062 13.257812 L 125.347656 13.257812 C 125.3125 13.480469 125.3125 13.707031 125.3125 14.007812 C 125.3125 14.273438 125.273438 14.648438 125.273438 15.136719 C 125.273438 15.625 125.273438 16.265625 125.273438 17.128906 L 125.089844 17.128906 C 124.90625 16 124.460938 15.097656 123.796875 14.460938 C 123.128906 13.820312 122.316406 13.480469 121.394531 13.480469 C 120.875 13.480469 120.433594 13.632812 120.136719 13.894531 C 119.804688 14.160156 119.65625 14.535156 119.65625 15.0625 C 119.65625 15.398438 119.765625 15.699219 119.953125 15.964844 C 120.136719 16.226562 120.46875 16.453125 120.875 16.640625 C 121.28125 16.828125 121.800781 17.054688 122.464844 17.207031 C 123.757812 17.542969 124.683594 18.03125 125.199219 18.636719 C 125.71875 19.238281 125.976562 19.953125 125.976562 20.816406 C 125.976562 21.792969 125.570312 22.585938 124.757812 23.148438 C 123.945312 23.714844 122.871094 24.015625 121.503906 24.015625 Z M 121.355469 23.976562 " fill-opacity="1" fill-rule="nonzero"/></g><g clip-path="url(#b0282c2f8c)"><path fill="#013b5d" d="M 100 40.167969 C 94.648438 40.167969 89.578125 38.070312 85.78125 34.273438 C 81.988281 30.480469 79.914062 25.433594 79.914062 20.058594 C 79.914062 14.707031 81.988281 9.636719 85.78125 5.839844 C 89.578125 2.046875 94.648438 -0.0273438 100 -0.0273438 C 105.375 -0.0273438 110.421875 2.046875 114.214844 5.839844 C 118.011719 9.636719 120.109375 14.707031 120.109375 20.058594 C 120.109375 25.433594 118.011719 30.480469 114.214844 34.273438 C 110.421875 38.070312 105.375 40.167969 100 40.167969 Z M 100 0.75 C 89.34375 0.75 80.691406 9.402344 80.691406 20.058594 C 80.691406 30.714844 89.34375 39.390625 100 39.390625 C 110.65625 39.390625 119.332031 30.714844 119.332031 20.058594 C 119.332031 9.402344 110.65625 0.75 100 0.75 Z M 100 0.75 " fill-opacity="1" fill-rule="evenodd"/></g><path fill="#013b5d" d="M 115.5625 8.339844 L 84.460938 8.339844 C 84.25 8.339844 84.0625 8.175781 84.0625 7.941406 C 84.0625 7.726562 84.25 7.5625 84.460938 7.5625 L 115.5625 7.5625 C 115.773438 7.5625 115.960938 7.726562 115.960938 7.941406 C 115.960938 8.175781 115.773438 8.339844 115.5625 8.339844 Z M 115.5625 8.339844 " fill-opacity="1" fill-rule="evenodd"/><g clip-path="url(#5a41e609fc)"><path fill="#013b5d" d="M 100 40.167969 C 96.417969 40.167969 93.351562 34.320312 92.382812 25.597656 C 92.359375 25.480469 92.410156 25.363281 92.480469 25.292969 C 92.550781 25.199219 92.667969 25.152344 92.761719 25.152344 L 107.238281 25.152344 C 107.355469 25.152344 107.472656 25.199219 107.542969 25.292969 C 107.617188 25.363281 107.640625 25.480469 107.640625 25.597656 C 106.671875 34.320312 103.605469 40.167969 100 40.167969 Z M 93.210938 25.953125 C 93.65625 29.75 94.578125 33.144531 95.804688 35.570312 C 97.03125 38.023438 98.515625 39.390625 100 39.390625 C 101.484375 39.390625 102.996094 38.023438 104.21875 35.570312 C 105.445312 33.144531 106.34375 29.75 106.8125 25.953125 Z M 107.144531 14 C 107.121094 14 107.121094 14 107.121094 14 L 92.878906 14 C 92.761719 14 92.667969 13.953125 92.597656 13.882812 C 92.527344 13.785156 92.480469 13.667969 92.503906 13.574219 C 93.019531 9.683594 93.964844 6.335938 95.238281 3.90625 C 96.605469 1.316406 98.253906 -0.0273438 100 -0.0273438 C 101.769531 -0.0273438 103.417969 1.316406 104.761719 3.90625 C 106.058594 6.335938 107.003906 9.660156 107.519531 13.527344 C 107.519531 13.550781 107.519531 13.574219 107.519531 13.621094 C 107.519531 13.832031 107.355469 14 107.144531 14 Z M 93.328125 13.222656 L 106.671875 13.222656 C 106.175781 9.613281 105.257812 6.523438 104.078125 4.261719 C 103.230469 2.660156 101.839844 0.75 100 0.75 C 98.183594 0.75 96.792969 2.660156 95.945312 4.261719 C 94.742188 6.523438 93.847656 9.613281 93.328125 13.222656 Z M 93.328125 13.222656 " fill-opacity="1" fill-rule="evenodd"/></g><g clip-path="url(#9fcd3f1e8f)"><path fill="#013b5d" d="M 100 -3.199219 C 94.648438 -3.199219 89.578125 -1.101562 85.78125 2.695312 C 81.988281 6.492188 79.914062 11.539062 79.914062 16.914062 C 79.914062 22.265625 81.988281 27.332031 85.78125 31.128906 C 89.578125 34.925781 94.648438 37 100 37 C 105.375 37 110.421875 34.925781 114.214844 31.128906 C 118.011719 27.332031 120.109375 22.265625 120.109375 16.914062 C 120.109375 11.539062 118.011719 6.492188 114.214844 2.695312 C 110.421875 -1.101562 105.375 -3.199219 100 -3.199219 Z M 100 36.222656 C 89.34375 36.222656 80.691406 27.570312 80.691406 16.914062 C 80.691406 6.257812 89.34375 -2.421875 100 -2.421875 C 110.65625 -2.421875 119.332031 6.257812 119.332031 16.914062 C 119.332031 27.570312 110.65625 36.222656 100 36.222656 Z M 100 36.222656 " fill-opacity="1" fill-rule="evenodd"/></g><path fill="#013b5d" d="M 115.5625 28.628906 L 84.460938 28.628906 C 84.25 28.628906 84.0625 28.796875 84.0625 29.03125 C 84.0625 29.242188 84.25 29.410156 84.460938 29.410156 L 115.5625 29.410156 C 115.773438 29.410156 115.960938 29.242188 115.960938 29.03125 C 115.960938 28.796875 115.773438 28.628906 115.5625 28.628906 Z M 115.5625 28.628906 " fill-opacity="1" fill-rule="evenodd"/><g clip-path="url(#545f60a809)"><path fill="#013b5d" d="M 100 -3.199219 C 96.417969 -3.199219 93.351562 2.648438 92.382812 11.371094 C 92.359375 11.492188 92.410156 11.609375 92.480469 11.679688 C 92.550781 11.773438 92.667969 11.820312 92.761719 11.820312 L 107.238281 11.820312 C 107.355469 11.820312 107.472656 11.773438 107.542969 11.679688 C 107.617188 11.609375 107.640625 11.492188 107.640625 11.371094 C 106.671875 2.648438 103.605469 -3.199219 100 -3.199219 Z M 93.210938 11.019531 C 93.65625 7.222656 94.578125 3.828125 95.804688 1.398438 C 97.03125 -1.050781 98.515625 -2.421875 100 -2.421875 C 101.484375 -2.421875 102.996094 -1.050781 104.21875 1.398438 C 105.445312 3.828125 106.34375 7.222656 106.8125 11.019531 Z M 107.144531 22.972656 C 107.121094 22.972656 107.121094 22.972656 107.121094 22.972656 L 92.878906 22.972656 C 92.761719 22.972656 92.667969 23.019531 92.597656 23.089844 C 92.527344 23.183594 92.480469 23.300781 92.503906 23.398438 C 93.019531 27.285156 93.964844 30.632812 95.238281 33.0625 C 96.605469 35.65625 98.253906 37 100 37 C 101.769531 37 103.417969 35.65625 104.761719 33.0625 C 106.058594 30.632812 107.003906 27.308594 107.519531 23.445312 C 107.519531 23.421875 107.519531 23.398438 107.519531 23.347656 C 107.519531 23.136719 107.355469 22.972656 107.144531 22.972656 Z M 93.328125 23.75 L 106.671875 23.75 C 106.175781 27.359375 105.257812 30.445312 104.078125 32.710938 C 103.230469 34.3125 101.839844 36.222656 100 36.222656 C 98.183594 36.222656 96.792969 34.3125 95.945312 32.710938 C 94.742188 30.445312 93.847656 27.359375 93.328125 23.75 Z M 93.328125 23.75 " fill-opacity="1" fill-rule="evenodd"/></g><g clip-path="url(#122010b853)"><path fill="#650808" d="M 30.699219 23.730469 L 25.75 14.777344 C 25.53125 14.363281 25.3125 14.070312 25.078125 13.910156 C 24.859375 13.746094 24.550781 13.636719 24.171875 13.566406 L 24.171875 13.402344 C 24.496094 13.421875 24.933594 13.421875 25.457031 13.4375 C 25.984375 13.457031 26.601562 13.457031 27.269531 13.457031 C 27.871094 13.457031 28.449219 13.457031 29.011719 13.4375 C 29.574219 13.421875 29.972656 13.421875 30.207031 13.402344 L 30.207031 13.566406 C 29.773438 13.582031 29.445312 13.621094 29.230469 13.710938 C 29.011719 13.800781 28.882812 13.945312 28.847656 14.125 C 28.828125 14.308594 28.882812 14.542969 29.046875 14.832031 L 32.292969 20.710938 L 32.003906 21.144531 L 33.941406 17.4375 C 34.304688 16.730469 34.503906 16.097656 34.558594 15.519531 C 34.613281 14.941406 34.523438 14.488281 34.269531 14.125 C 34.03125 13.78125 33.632812 13.601562 33.089844 13.582031 L 33.089844 13.421875 C 33.488281 13.4375 33.816406 13.4375 34.070312 13.4375 C 34.324219 13.4375 34.558594 13.457031 34.757812 13.457031 C 34.957031 13.457031 35.15625 13.457031 35.339844 13.457031 C 35.59375 13.457031 35.847656 13.457031 36.101562 13.4375 C 36.351562 13.421875 36.660156 13.421875 37.042969 13.402344 L 37.042969 13.566406 C 36.753906 13.675781 36.480469 13.820312 36.246094 14.019531 C 36.007812 14.214844 35.773438 14.488281 35.539062 14.832031 C 35.300781 15.175781 35.03125 15.644531 34.722656 16.207031 L 30.804688 23.691406 Z M 37.660156 23.546875 L 37.660156 23.386719 C 38.09375 23.347656 38.402344 23.3125 38.601562 23.257812 C 38.800781 23.203125 38.929688 23.097656 38.980469 22.914062 C 39.035156 22.753906 39.074219 22.5 39.074219 22.15625 L 39.074219 14.8125 C 39.074219 14.46875 39.035156 14.214844 38.980469 14.054688 C 38.929688 13.890625 38.78125 13.765625 38.582031 13.710938 C 38.382812 13.65625 38.074219 13.601562 37.660156 13.582031 L 37.660156 13.421875 C 37.96875 13.4375 38.367188 13.4375 38.855469 13.457031 C 39.34375 13.476562 39.925781 13.476562 40.578125 13.476562 C 41.175781 13.476562 41.703125 13.476562 42.191406 13.457031 C 42.679688 13.4375 43.0625 13.4375 43.351562 13.421875 L 43.351562 13.582031 C 42.933594 13.601562 42.644531 13.636719 42.445312 13.710938 C 42.246094 13.765625 42.117188 13.890625 42.0625 14.054688 C 42.007812 14.214844 41.972656 14.46875 41.972656 14.8125 L 41.972656 22.15625 C 41.972656 22.5 42.007812 22.753906 42.0625 22.914062 C 42.117188 23.078125 42.246094 23.1875 42.445312 23.257812 C 42.644531 23.3125 42.953125 23.367188 43.351562 23.386719 L 43.351562 23.546875 C 43.0625 23.53125 42.679688 23.53125 42.191406 23.511719 C 41.703125 23.496094 41.175781 23.496094 40.578125 23.496094 C 39.925781 23.496094 39.363281 23.496094 38.855469 23.511719 C 38.367188 23.53125 37.949219 23.53125 37.660156 23.546875 Z M 48.988281 23.746094 C 48.371094 23.746094 47.847656 23.691406 47.429688 23.601562 C 47.011719 23.511719 46.667969 23.402344 46.398438 23.3125 C 46.125 23.203125 45.871094 23.167969 45.617188 23.167969 C 45.4375 23.167969 45.289062 23.203125 45.199219 23.296875 C 45.109375 23.386719 45.039062 23.53125 44.964844 23.730469 L 44.800781 23.730469 C 44.820312 23.457031 44.835938 23.167969 44.855469 22.84375 C 44.875 22.519531 44.875 22.082031 44.890625 21.542969 C 44.890625 21 44.890625 20.273438 44.890625 19.371094 L 45.054688 19.371094 C 45.273438 20.761719 45.691406 21.8125 46.324219 22.519531 C 46.957031 23.222656 47.792969 23.566406 48.863281 23.566406 C 49.480469 23.566406 49.96875 23.402344 50.332031 23.078125 C 50.691406 22.753906 50.875 22.335938 50.875 21.8125 C 50.875 21.433594 50.785156 21.125 50.601562 20.855469 C 50.421875 20.601562 50.148438 20.367188 49.769531 20.148438 C 49.386719 19.949219 48.917969 19.769531 48.320312 19.605469 C 47.464844 19.371094 46.777344 19.082031 46.269531 18.738281 C 45.761719 18.394531 45.417969 18.015625 45.199219 17.582031 C 44.984375 17.144531 44.875 16.675781 44.875 16.152344 C 44.875 15.574219 45.039062 15.066406 45.382812 14.632812 C 45.707031 14.199219 46.179688 13.855469 46.777344 13.621094 C 47.375 13.367188 48.066406 13.238281 48.84375 13.238281 C 49.425781 13.238281 49.894531 13.292969 50.277344 13.386719 C 50.65625 13.492188 50.984375 13.582031 51.253906 13.691406 C 51.527344 13.800781 51.78125 13.855469 52.035156 13.855469 C 52.234375 13.855469 52.378906 13.800781 52.46875 13.710938 C 52.5625 13.621094 52.632812 13.457031 52.6875 13.238281 L 52.851562 13.238281 C 52.832031 13.457031 52.8125 13.691406 52.796875 13.964844 C 52.777344 14.214844 52.777344 14.597656 52.761719 15.046875 C 52.761719 15.519531 52.761719 16.167969 52.761719 16.984375 L 52.597656 16.984375 C 52.398438 15.863281 51.960938 14.996094 51.308594 14.363281 C 50.65625 13.726562 49.839844 13.402344 48.898438 13.402344 C 48.371094 13.402344 47.957031 13.53125 47.628906 13.800781 C 47.304688 14.054688 47.140625 14.433594 47.140625 14.941406 C 47.140625 15.265625 47.25 15.574219 47.449219 15.828125 C 47.648438 16.078125 47.957031 16.296875 48.371094 16.511719 C 48.789062 16.710938 49.316406 16.910156 49.96875 17.09375 C 51.273438 17.4375 52.179688 17.90625 52.707031 18.484375 C 53.214844 19.0625 53.484375 19.785156 53.484375 20.617188 C 53.484375 21.59375 53.085938 22.355469 52.289062 22.914062 C 51.492188 23.476562 50.402344 23.765625 49.027344 23.765625 Z M 54.71875 23.546875 L 54.71875 23.386719 C 55.152344 23.347656 55.460938 23.3125 55.660156 23.257812 C 55.859375 23.203125 55.988281 23.097656 56.042969 22.914062 C 56.097656 22.753906 56.132812 22.5 56.132812 22.15625 L 56.132812 14.8125 C 56.132812 14.46875 56.097656 14.214844 56.042969 14.054688 C 55.988281 13.890625 55.84375 13.765625 55.640625 13.710938 C 55.441406 13.65625 55.136719 13.601562 54.71875 13.582031 L 54.71875 13.421875 C 55.027344 13.4375 55.425781 13.4375 55.914062 13.457031 C 56.402344 13.476562 56.984375 13.476562 57.636719 13.476562 C 58.234375 13.476562 58.761719 13.476562 59.25 13.457031 C 59.738281 13.4375 60.121094 13.4375 60.410156 13.421875 L 60.410156 13.582031 C 59.992188 13.601562 59.703125 13.636719 59.503906 13.710938 C 59.304688 13.765625 59.175781 13.890625 59.125 14.054688 C 59.070312 14.214844 59.03125 14.46875 59.03125 14.8125 L 59.03125 22.15625 C 59.03125 22.5 59.070312 22.753906 59.125 22.914062 C 59.175781 23.078125 59.304688 23.1875 59.503906 23.257812 C 59.703125 23.3125 60.011719 23.367188 60.410156 23.386719 L 60.410156 23.546875 C 60.121094 23.53125 59.738281 23.53125 59.25 23.511719 C 58.761719 23.496094 58.234375 23.496094 57.636719 23.496094 C 56.984375 23.496094 56.421875 23.496094 55.914062 23.511719 C 55.425781 23.53125 55.007812 23.53125 54.71875 23.546875 Z M 67.753906 23.746094 C 66.519531 23.746094 65.414062 23.53125 64.472656 23.078125 C 63.527344 22.625 62.804688 22.011719 62.277344 21.214844 C 61.75 20.417969 61.5 19.515625 61.5 18.484375 C 61.5 17.453125 61.769531 16.550781 62.3125 15.753906 C 62.859375 14.957031 63.601562 14.34375 64.542969 13.890625 C 65.488281 13.4375 66.554688 13.222656 67.769531 13.222656 C 69.023438 13.222656 70.109375 13.4375 71.050781 13.890625 C 71.996094 14.34375 72.71875 14.957031 73.246094 15.753906 C 73.769531 16.550781 74.042969 17.453125 74.042969 18.484375 C 74.042969 19.515625 73.769531 20.417969 73.226562 21.214844 C 72.683594 22.011719 71.941406 22.625 71.015625 23.078125 C 70.074219 23.53125 68.984375 23.746094 67.769531 23.746094 Z M 67.808594 23.585938 C 68.386719 23.585938 68.914062 23.367188 69.402344 22.953125 C 69.890625 22.535156 70.273438 21.9375 70.5625 21.179688 C 70.851562 20.417969 70.996094 19.515625 70.996094 18.484375 C 70.996094 17.4375 70.835938 16.53125 70.527344 15.773438 C 70.199219 15.011719 69.800781 14.414062 69.292969 14 C 68.785156 13.582031 68.261719 13.386719 67.699219 13.386719 C 67.101562 13.386719 66.574219 13.601562 66.085938 14.019531 C 65.59375 14.433594 65.214844 15.03125 64.925781 15.789062 C 64.632812 16.550781 64.488281 17.453125 64.488281 18.484375 C 64.488281 19.515625 64.652344 20.417969 64.960938 21.199219 C 65.269531 21.957031 65.6875 22.554688 66.195312 22.96875 C 66.699219 23.386719 67.226562 23.585938 67.789062 23.585938 Z M 67.808594 23.585938 " fill-opacity="1" fill-rule="nonzero"/></g></svg>